{"title":"Left Behind 2014 720p HDCAM FIRST ENGLISH x264 Pimp4003","uid":11260296,"size":1980435191,"categoryP":"video","categoryS":"movies","magnet":"?xt=urn:btih:f100f0492d490b49c1ba9eca251130dedaa9bc6f&amp;dn=Left+Behind+2014+720p+HDCAM+FIRST+ENGLISH+x264+Pimp4003&amp;tr=udp%3A%2F%2Ftracker.openbittorrent.com%3A80&amp;tr=udp%3A%2F%2Fopen.demonii.com%3A1337&amp;tr=udp%3A%2F%2Ftracker.coppersurfer.tk%3A6969&amp;tr=udp%3A%2F%2Fexodus.desync.com%3A6969","seeders":1,"leechers":0,"uploader":"shawnmurthy","files":-1,"time":1413955225,"description":"KING PIMP4003 PICTURES PRESENTS....A PIMP4003 EXCLUSIVE\n &lt;a href=&quot;\nhttp://i.imgur.com/fW5GLTr.jpg&quot; rel=&quot;nofollow&quot; target=&quot;_NEW&quot;&gt;\nhttp://i.imgur.com/fW5GLTr.jpg&lt;/a&gt;\n\nPIMP4003 SOURCE....FULL MOVIE I DOUBLED CHECKED.....VIDEO IS PRETTY GOOD HAD SOME FLICKER HERE AND THERE REMOVED THAT AND ADJUSTED THE CONTRAST......AUDIO IS GOOD NOT BAD WAS A LITTLE HOLLOW FIXED THAT WELL............ENJOY.....PIMP4003\n &lt;a href=&quot;\nhttp://i.imgur.com/E46jj5p.jpg&quot; rel=&quot;nofollow&quot; target=&quot;_NEW&quot;&gt;\nhttp://i.imgur.com/E46jj5p.jpg&lt;/a&gt;\n\nFOR REQUESTS, EXCLUSIVE MOVIES AND SUPER FAST SPEEDS AND FOR SCREENSHOTS AND SAMPLE....CLICK BELOW LINK\n\nLeft Behind 2014 720p HDCAM FIRST ENGLISH x264 Pimp4003\n\nENJOY\n\nPIMP4003\n\nVideo\nID                                       : 1\nFormat                                   : MPEG-4 Visual\nFormat profile                           : Simple@L3\nFormat settings, BVOP                    : No\nFormat settings, QPel                    : No\nFormat settings, GMC                     : No warppoints\nFormat settings, Matrix                  : Default (H.263)\nCodec ID                                 : 20\nDuration                                 : 1h 44mn\nBit rate                                 : 2 421 Kbps\nWidth                                    : 1 280 pixels\nHeight                                   : 536 pixels\nDisplay aspect ratio                     : 2.40:1\nFrame rate mode                          : Variable\nFrame rate                               : 59.940 fps\nMinimum frame rate                       : 59.916 fps\nMaximum frame rate                       : 60.157 fps\nColor space                              : YUV\nChroma subsampling                       : 4:2:0\nBit depth                                : 8 bits\nScan type                                : Progressive\nCompression mode                         : Lossy\nBits/(Pixel*Frame)                       : 0.059\nStream size                              : 1.77 GiB (96%)\nWriting library                          : ZJMedia MPEG Encoder\n\nAudio\nID                                       : 2\nFormat                                   : AAC\nFormat/Info                              : Advanced Audio Codec\nFormat profile                           : LC\nCodec ID                                 : 40\nDuration                                 : 1h 44mn\nBit rate mode                            : Variable\nBit rate                                 : 89.8 Kbps\nChannel(s)                               : 2 channels\nChannel positions                        : Front: L R\nSampling rate                            : 48.0 KHz\nCompression mode                         : Lossy\nStream size                              : 67.4 MiB (4%)\n &lt;a href=&quot;\nhttp://i.imgur.com/Gz5zj25.png&quot; rel=&quot;nofollow&quot; target=&quot;_NEW&quot;&gt;\nhttp://i.imgur.com/Gz5zj25.png&lt;/a&gt; &lt;a href=&quot;\nhttp://i.imgur.com/wbjaAUA.png&quot; rel=&quot;nofollow&quot; target=&quot;_NEW&quot;&gt;\nhttp://i.imgur.com/wbjaAUA.png&lt;/a&gt; &lt;a href=&quot;\nhttp://i.imgur.com/TsI6epo.png&quot; rel=&quot;nofollow&quot; target=&quot;_NEW&quot;&gt;\nhttp://i.imgur.com/TsI6epo.png&lt;/a&gt;","torrent":{"xt":"urn:btih:f100f0492d490b49c1ba9eca251130dedaa9bc6f","amp;dn":"Left+Behind+2014+720p+HDCAM+FIRST+ENGLISH+x264+Pimp4003","amp;tr":["udp%3A%2F%2Ftracker.openbittorrent.com%3A80","udp%3A%2F%2Fopen.demonii.com%3A1337","udp%3A%2F%2Ftracker.coppersurfer.tk%3A6969","udp%3A%2F%2Fexodus.desync.com%3A6969"],"infoHash":"f100f0492d490b49c1ba9eca251130dedaa9bc6f","infoHashBuffer":{"type":"Buffer","data":[241,0,240,73,45,73,11,73,193,186,158,202,37,17,48,222,218,169,188,111]},"announce":[],"urlList":[]}}